<svg xmlns="http://www.w3.org/2000/svg" viewBox="0 0 100 100">
  <!-- Fondo Azul Oscuro Corporativo -->
  <rect width="100" height="100" rx="22" fill="#1e3a8a"/>
  
  <!-- Icono de Llave y Destornillador en Blanco -->
  <g transform="translate(20, 20) scale(2.5)" fill="#FFFFFF">
    <path d="M12 6.75a5.25 5.25 0 0110.5 0c0 1.229-.424 2.36-1.132 3.25l-2.023 2.023a.75.75 0 01-1.06 0l-3.322-3.322a.75.75 0 010-1.06l1.203-1.203a.75.75 0 000-1.06l-1.06-1.06a.75.75 0 00-1.06 0l-1.203 1.203a.75.75 0 01-1.06 0l-3.322-3.322a.75.75 0 010-1.06l2.023-2.023A5.246 5.246 0 0112 6.75zm-6.046 5.797l-3.723 3.723a1.5 1.5 0 000 2.122l3.414 3.414a1.5 1.5 0 002.122 0l3.723-3.723-5.536-5.536z" />
    <path d="M15.75 12l5.25 5.25a.75.75 0 010 1.06l-1.06 1.06a.75.75 0 01-1.06 0l-5.25-5.25a.75.75 0 010-1.06l1.06-1.06a.75.75 0 011.06 0z" />
  </g>
</svg>