<svg xmlns="http://www.w3.org/2000/svg" viewBox="0 0 100 100">
  <!-- Fondo Blanco -->
  <rect width="100" height="100" fill="#FFFFFF"/>
  
  <!-- Icono de Llave y Destornillador en Azul Oscuro (#1e3a8a) -->
  <!-- Basado en el diseño de la imagen proporcionada -->
  <g transform="translate(15, 15) scale(0.7)" fill="#1e3a8a">
    <path d="M89.04 18.06c-3.13-3.13-7.61-4.14-11.63-3.13L64.24 2.14c-2.85-2.85-7.48-2.85-10.33 0l-5.17 5.17c-2.85 2.85-2.85 7.48 0 10.33l12.79 13.17c-1 4.02-.01 8.5 3.13 11.63 4.22 4.22 10.59 4.88 15.46 2.05l16.14 16.14c1.43 1.43 3.74 1.43 5.17 0l2.59-2.59c1.43-1.43 1.43-3.74 0-5.17L87.89 36.74c2.83-4.87 2.17-11.24-2.05-15.46a.042.042 0 0 0 -6.8 0zM17.18 56.57c-2.85-2.85-7.48-2.85-10.33 0L1.68 61.74c-2.85 2.85-2.85 7.48 0 10.33l25.86 25.86c2.85 2.85 7.48 2.85 10.33 0l5.17-5.17c2.85-2.85 2.85-7.48 0-10.33L17.18 56.57zM89.33 63.46l-20.7-20.7c-2.85-2.85-7.48-2.85-10.33 0l-5.17 5.17c-2.85 2.85-2.85 7.48 0 10.33l20.7 20.7c2.85 2.85 7.48 2.85 10.33 0l5.17-5.17c2.85-2.85 2.85-7.48 0-10.33z" transform="translate(0, 0)"/>
  </g>
</svg>