<svg xmlns="http://www.w3.org/2000/svg" width="512" height="512" viewBox="0 0 512 512">
  <rect width="512" height="512" fill="#FFFFFF"/>
  <path fill="#1e3a8a" d="M439.1 123.1c-13.8-13.8-33.5-18.2-51.2-13.8L330 53.1c-12.5-12.5-32.9-12.5-45.5 0l-22.8 22.8c-12.5 12.5-12.5 32.9 0 45.5l56.3 57.9c-4.4 17.7 0 37.4 13.8 51.2 18.6 18.6 46.6 21.5 68 9L470.9 311c6.3 6.3 16.5 6.3 22.8 0l11.4-11.4c6.3-6.3 6.3-16.5 0-22.8l-71.1-71.1c12.5-21.4 9.6-49.4-9-68-30-30-0.2 0.2-24.9 15.4zm-316.2 169.4c-12.5-12.5-32.9-12.5-45.5 0L53.1 315.3c-12.5 12.5-12.5 32.9 0 45.5l113.8 113.8c12.5 12.5 32.9 12.5 45.5 0l22.8-22.8c12.5-12.5 12.5-32.9 0-45.5l-112.3-113.8zm317.4 30.3l-91.1-91.1c-12.5-12.5-32.9-12.5-45.5 0l-22.8 22.8c-12.5 12.5-12.5 32.9 0 45.5l91.1 91.1c12.5 12.5 32.9 12.5 45.5 0l22.8-22.8c12.5-12.5 12.5-32.9 0-45.5z"/>
</svg>