<svg xmlns="http://www.w3.org/2000/svg" viewBox="0 0 100 100">
  <rect width="100" height="100" rx="20" fill="#1e40af"/>
  <g transform="rotate(45 50 50)">
    <path fill="none" stroke="#FFFFFF" stroke-linecap="round" stroke-linejoin="round" stroke-width="8" d="M38.63,25.78a18.2,18.2,0,0,1,26,0l10.5,10.5a18.2,18.2,0,0,1,0,26l-7.25,7.25a7.28,7.28,0,0,1-10.29,0L38.63,50.58a7.28,7.28,0,0,1,0-10.29l-7.25-7.25a18.2,18.2,0,0,1,0-26l10.5-10.5a18.2,18.2,0,0,1,26,0"/>
    <circle cx="28.5" cy="71.5" r="12.5" fill="#FFFFFF"/>
  </g>
</svg>